The interior life of a Vietnamese household in the 1950s, as seen through the eyes of a young servant girl, is explored in Tran Anh Hung's placid, but visually intoxicating tone poem, L'Odeur de la Papaye Verte. The film begins in 1951, when the beautiful and inquisitive 10-year-old peasant girl Mui (Lu Man San) is hired to work at the home of an affluent Saigon family. When the father absconds with the family's money, the tireless mother (Truong Thi Loc) is forced to support the family through the slim profits of her tiny fabric store. As the family struggles to make ends meet, Mui becomes attracted to a friend of the family, Khuyen (Vuong Hoa Hoi). The film then shifts to 1961, when the family is in desperate straits. The father has died, and Mui (Tran Nu Yen-Khe), now twenty years old, finds herself working in Khuyen's home. Khuyun has grown into an attractive, sophisticated French-speaking pianist, with his own expensive mistress. Mui serves him as she has served the family -- with perfection and silence. She also loves Khuyen is silence, and gradually Khuyen begins to take notice of Mui's love for him. 

   General
      Complete name : Mùi du du xanh - L'odeur de la papaye verte.avi
      Format : AVI
      Format/Info : Audio Video Interleave
      File size : 1.18 GiB
      Duration : 1h 39mn
      Overall bit rate : 1 689 Kbps
      Writing application : VirtualDubMod 1.5.10.2 (build 2540/release)
      Writing library : VirtualDubMod build 2540/release
   Video #0
      ID : 0
      Format : MPEG-4 Visual
      Format profile : AdvancedSimple@L5
      Format settings, BVOP : Yes
      Format settings, QPel : No
      Format settings, GMC : No warppoints
      Format settings, Matrix : Default (MPEG)
      Codec ID : XVID
      Codec ID/Hint : XviD
      Duration : 1h 39mn
      Bit rate : 1 488 Kbps
      Width : 704 pixels
      Height : 424 pixels
      Display aspect ratio : 1.660
      Frame rate : 25.000 fps
      Resolution : 24 bits
      Colorimetry : 4:2:0
      Scan type : Progressive
      Bits/(Pixel*Frame) : 0.199
      Stream size : 1.04 GiB (88%)
      Writing library : XviD 1.2.1 (UTC 2008-12-04)
   Audio #1
      ID : 1
      Format : AC-3
      Format/Info : Audio Coding 3
      Codec ID : 2000
      Duration : 1h 39mn
      Bit rate mode : Constant
      Bit rate : 192 Kbps
      Channel(s) : 2 channels
      Channel positions : L R
      Sampling rate : 48.0 KHz
      Stream size : 137 MiB (11%)
      Alignment : Split accross interleaves
      Interleave, duration : 40 ms (1.00 video frame)
      Interleave, preload duration : 500 ms
 
http://www.imdb.com/title/tt0107617/

Vietnamese audio, English and Portuguese subtitles

Originally posted at KG by charulata, whom we thank

Anh Hung Tran - Mùi du du xanh - L'odeur de la papaye verte (1993)